Coordinates
version=1
nRows=16
nColumns=63
inDegrees=yes

Units are S.I. units (second, meters, Newtons, ...)
If the header above contains a line with 'inDegrees', this indicates whether rotational values are in degrees (yes) or radians (no).

endheader
time	pelvis_tilt	pelvis_list	pelvis_rotation	pelvis_tx	pelvis_ty	pelvis_tz	hip_flexion_r	hip_adduction_r	hip_rotation_r	knee_angle_r	knee_angle_r_beta	ankle_angle_r	subtalar_angle_r	mtp_angle_r	hip_flexion_l	hip_adduction_l	hip_rotation_l	knee_angle_l	knee_angle_l_beta	ankle_angle_l	subtalar_angle_l	mtp_angle_l	L5_S1_Flex_Ext	L5_S1_Lat_Bending	L5_S1_axial_rotation	L4_L5_Flex_Ext	L4_L5_Lat_Bending	L4_L5_axial_rotation	L3_L4_Flex_Ext	L3_L4_Lat_Bending	L3_L4_axial_rotation	L2_L3_Flex_Ext	L2_L3_Lat_Bending	L2_L3_axial_rotation	L1_L2_Flex_Ext	L1_L2_Lat_Bending	L1_L2_axial_rotation	L1_T12_Flex_Ext	L1_T12_Lat_Bending	L1_T12_axial_rotation	Abs_r3	Abs_r2	Abs_r1	Abs_t1	Abs_t2	neck_flexion	neck_bending	neck_rotation	arm_flex_r	arm_add_r	arm_rot_r	elbow_flex_r	pro_sup_r	wrist_flex_r	wrist_dev_r	arm_flex_l	arm_add_l	arm_rot_l	elbow_flex_l	pro_sup_l	wrist_flex_l	wrist_dev_l
2.169492	7.812227	-2.841451	113.565231	0.233227	0.798324	0.898677	7.893999	6.656812	-10.875769	16.812994	0.293442	29.099687	-11.600235	0.000000	8.291730	-5.141669	18.272357	13.281477	0.231806	36.321713	-7.664830	0.000000	-0.338113	1.216587	-0.580166	-0.627910	1.618061	-0.616427	-0.555486	2.958009	-0.616427	-0.386429	2.958009	-0.507645	-0.313972	2.480864	-0.471385	-0.193198	1.884493	-0.435125	-2.415108	13.762274	-3.226710	0.000000	0.000000	16.421581	-12.748092	14.709909	5.140776	-14.703248	139.494627	0.639752	2.151495	3.404420	-9.031752	6.665734	-8.965269	57.068592	20.149519	73.825959	-6.014069	-0.322993
2.186441	7.673993	-3.119702	113.577327	0.233357	0.798106	0.899136	8.005276	6.459141	-10.437337	16.584483	0.289454	28.921791	-11.979934	0.000000	8.530109	-4.911200	17.995754	13.227848	0.230870	36.273861	-7.307840	0.000000	-0.339824	1.203982	-0.582518	-0.631087	1.601296	-0.618925	-0.558297	2.927362	-0.618925	-0.388385	2.927362	-0.509703	-0.315561	2.455160	-0.473296	-0.194175	1.864968	-0.436888	-2.427330	13.619687	-3.239788	0.000000	0.000000	15.884300	-12.102423	14.643563	5.141964	-14.669969	139.272994	0.528658	2.166267	3.217544	-8.982546	6.453122	-9.067235	55.253500	20.534242	75.498153	-6.159323	0.288742
2.203390	7.522626	-3.318342	113.565409	0.233453	0.798016	0.899372	8.011212	6.281914	-10.017897	16.335694	0.285112	28.778321	-12.275653	0.000000	8.668844	-4.707860	17.691145	13.184172	0.230107	36.224213	-6.986295	0.000000	-0.337890	1.190014	-0.574979	-0.627496	1.582719	-0.610916	-0.555120	2.893401	-0.610916	-0.386175	2.893401	-0.503107	-0.313765	2.426677	-0.467171	-0.193070	1.843332	-0.431235	-2.413515	13.461680	-3.197863	0.000000	0.000000	15.365822	-11.483404	14.597013	5.074169	-14.640141	138.909811	0.448326	2.156238	3.123375	-8.972800	6.338947	-9.111011	53.991033	20.717810	76.759588	-6.230065	0.859076
2.220339	7.369050	-3.445547	113.533835	0.233503	0.798034	0.899430	7.938000	6.133114	-9.596185	16.089724	0.280819	28.653973	-12.542345	0.000000	8.731061	-4.534659	17.366180	13.170626	0.229871	36.176632	-6.710514	0.000000	-0.332920	1.176620	-0.559155	-0.618265	1.564905	-0.594102	-0.546954	2.860834	-0.594102	-0.380494	2.860834	-0.489261	-0.309149	2.399364	-0.454313	-0.190230	1.822584	-0.419366	-2.378011	13.310161	-3.109853	0.000000	0.000000	14.904050	-10.946327	14.552641	4.961387	-14.649424	138.118513	0.498004	2.168279	3.066727	-8.943205	6.331443	-9.087920	53.297142	20.707282	77.499126	-6.237736	1.365640
2.237288	7.230182	-3.504359	113.497499	0.233482	0.798138	0.899291	7.795765	6.021338	-9.242709	15.849515	0.276626	28.560506	-12.716487	0.000000	8.732435	-4.405681	17.035236	13.195994	0.230314	36.137249	-6.473733	0.000000	-0.325078	1.166227	-0.543097	-0.603702	1.551082	-0.577040	-0.534071	2.835564	-0.577040	-0.371532	2.835564	-0.475210	-0.301867	2.378170	-0.441266	-0.185750	1.806486	-0.407323	-2.322000	13.192593	-3.020541	0.000000	0.000000	14.499345	-10.471934	14.551746	4.823381	-14.680414	137.407532	0.576153	2.169670	3.066595	-8.938104	6.404811	-8.996823	53.132266	20.499118	77.529731	-6.172252	1.733677
2.254237	7.118930	-3.502470	113.467310	0.233393	0.798290	0.898991	7.603107	5.953676	-8.978051	15.620348	0.272627	28.500097	-12.792877	0.000000	8.702969	-4.323985	16.726036	13.288244	0.231924	36.125121	-6.284081	0.000000	-0.315438	1.160199	-0.529234	-0.585799	1.543064	-0.562311	-0.518232	2.820907	-0.562311	-0.360514	2.820907	-0.463079	-0.292915	2.365877	-0.430002	-0.180241	1.797148	-0.396925	-2.253139	13.124400	-2.943439	0.000000	0.000000	14.168277	-10.057502	14.570955	4.681754	-14.740614	136.826205	0.689978	2.155540	3.090752	-8.949846	6.565066	-8.852463	53.589790	20.130533	76.772225	-6.084897	1.915619
2.271186	7.035885	-3.453978	113.421237	0.233292	0.798451	0.898543	7.386269	5.923569	-8.795052	15.425788	0.269231	28.488919	-12.755352	0.000000	8.662849	-4.284495	16.422253	13.461911	0.234955	36.154160	-6.139643	0.000000	-0.304940	1.158289	-0.513536	-0.566303	1.540524	-0.545632	-0.500985	2.816264	-0.545632	-0.348515	2.816264	-0.449344	-0.283167	2.361983	-0.417248	-0.174242	1.794189	-0.385152	-2.178152	13.102795	-2.856135	0.000000	0.000000	13.896591	-9.696187	14.605603	4.545550	-14.825829	136.323800	0.836055	2.133298	3.114803	-8.972801	6.804147	-8.673192	54.622976	19.649028	75.462056	-6.044722	1.919376
2.288136	6.974915	-3.366565	113.355708	0.233260	0.798558	0.898000	7.164130	5.928878	-8.656070	15.281788	0.266718	28.536470	-12.657447	0.000000	8.622336	-4.277732	16.153209	13.718581	0.239434	36.232804	-6.061167	0.000000	-0.295820	1.158224	-0.490440	-0.549367	1.540438	-0.521092	-0.486002	2.816107	-0.521092	-0.338092	2.816107	-0.429135	-0.274698	2.361851	-0.398482	-0.169031	1.794090	-0.367830	-2.113011	13.102066	-2.727679	0.000000	0.000000	13.684855	-9.364775	14.574210	4.416450	-14.923897	135.625431	1.034255	2.130331	3.167422	-8.985530	6.973884	-8.695046	52.862764	19.612868	76.832565	-6.406362	2.127978
2.305085	6.946533	-3.262377	113.268630	0.233266	0.798584	0.897372	6.963617	5.964621	-8.584300	15.194041	0.265186	28.643026	-12.471015	0.000000	8.607313	-4.303570	15.913781	14.055867	0.245321	36.370218	-6.020690	0.000000	-0.287478	1.161417	-0.468346	-0.533876	1.544685	-0.497618	-0.472298	2.823869	-0.497618	-0.328559	2.823869	-0.409803	-0.266952	2.368361	-0.380531	-0.164265	1.799035	-0.351259	-2.053427	13.138180	-2.604800	0.000000	0.000000	13.529256	-9.060202	14.537389	4.325610	-15.041814	135.006828	1.260653	2.124120	3.211354	-9.003496	7.087094	-8.611833	52.019068	19.416458	77.671997	-6.676741	2.320754
2.322034	6.949318	-3.130920	113.143008	0.233323	0.798576	0.896711	6.770313	6.035461	-8.560330	15.150702	0.264430	28.779430	-12.207692	0.000000	8.589685	-4.365373	15.724597	14.433614	0.251914	36.545716	-6.047364	0.000000	-0.284328	1.169192	-0.439515	-0.528026	1.555025	-0.466985	-0.467123	2.842773	-0.466985	-0.324959	2.842773	-0.384576	-0.264027	2.384216	-0.357106	-0.162465	1.811078	-0.329637	-2.030928	13.226131	-2.444453	0.000000	0.000000	13.434904	-8.809765	14.474855	4.280294	-15.197193	134.242069	1.544078	2.123285	3.273698	-9.024801	7.343071	-8.421588	53.117575	18.959905	76.847959	-6.812172	2.229446
2.338983	7.001582	-2.992861	113.009274	0.233390	0.798492	0.895983	6.611167	6.146001	-8.638461	15.161550	0.264619	28.927903	-11.863172	0.000000	8.613886	-4.466145	15.616300	14.883766	0.259771	36.773171	-6.139068	0.000000	-0.281333	1.182198	-0.405759	-0.522464	1.572324	-0.431119	-0.462202	2.874397	-0.431119	-0.321536	2.874397	-0.355040	-0.261246	2.410739	-0.329680	-0.160754	1.831225	-0.304320	-2.009535	13.373262	-2.256712	0.000000	0.000000	13.354107	-8.578783	14.334650	4.247049	-15.378025	133.404776	1.841937	2.127511	3.353408	-9.050534	7.677224	-8.131284	56.008823	18.248939	74.629170	-6.841044	1.890226
2.355932	7.066187	-2.849559	112.838163	0.233512	0.798387	0.895165	6.464110	6.266013	-8.758798	15.219414	0.265629	29.070022	-11.459027	0.000000	8.627998	-4.578410	15.561108	15.333042	0.267612	37.006306	-6.298032	0.000000	-0.282876	1.197179	-0.367570	-0.525329	1.592248	-0.390543	-0.464737	2.910821	-0.390543	-0.323299	2.910821	-0.321624	-0.262679	2.441288	-0.298651	-0.161635	1.854430	-0.275678	-2.020555	13.542730	-2.044315	0.000000	0.000000	13.308027	-8.336237	14.220494	4.260891	-15.587716	132.502295	2.191063	2.137106	3.465482	-9.068109	8.112360	-7.807884	60.278213	17.461595	71.193128	-6.784396	1.345361
2.372881	7.158265	-2.706945	112.674572	0.233649	0.798260	0.894233	6.339030	6.403149	-8.993945	15.329394	0.267548	29.179344	-10.975372	0.000000	8.666381	-4.708164	15.595741	15.824360	0.276187	37.246034	-6.533285	0.000000	-0.285483	1.214787	-0.332375	-0.530170	1.615667	-0.353149	-0.469020	2.953634	-0.353149	-0.326278	2.953634	-0.290828	-0.265099	2.477194	-0.270055	-0.163125	1.881706	-0.249281	-2.039176	13.741918	-1.848572	0.000000	0.000000	13.268411	-8.105595	14.067069	4.302838	-15.815792	131.588678	2.578561	2.143424	3.587900	-9.092527	8.614561	-7.444260	65.811406	16.578243	66.768353	-6.608556	0.661555
2.389831	7.236726	-2.575522	112.463695	0.233900	0.798144	0.893038	6.211890	6.549250	-9.089595	15.462320	0.269868	29.198328	-10.680007	0.000000	8.670523	-4.838554	15.555003	16.272032	0.284001	37.496203	-6.723418	0.000000	-0.288983	1.229042	-0.294638	-0.536670	1.634626	-0.313053	-0.474770	2.988293	-0.313053	-0.330279	2.988293	-0.257808	-0.268350	2.506263	-0.239393	-0.165125	1.903786	-0.220978	-2.064176	13.903172	-1.638688	0.000000	0.000000	13.237128	-7.811533	13.937301	4.361137	-16.029947	130.571313	3.005371	2.157322	3.751973	-9.056501	9.123964	-7.110000	72.053746	15.741811	61.582024	-6.447781	-0.118267
2.406780	7.310507	-2.457753	112.212426	0.234266	0.798078	0.891599	6.097248	6.699921	-9.123385	15.637613	0.272928	29.139031	-10.471791	0.000000	8.645151	-4.972226	15.512284	16.675942	0.291050	37.708291	-6.963969	0.000000	-0.292513	1.241222	-0.261099	-0.543227	1.650826	-0.277418	-0.480570	3.017908	-0.277418	-0.334314	3.017908	-0.228462	-0.271628	2.531101	-0.212143	-0.167142	1.922653	-0.195824	-2.089395	14.040956	-1.452154	0.000000	0.000000	13.221583	-7.519928	13.873111	4.457720	-16.238998	129.563052	3.482326	2.184717	3.946673	-8.973976	9.630176	-6.801899	78.785216	14.946363	55.879117	-6.249006	-0.980015
2.423729	7.369042	-2.352063	111.953392	0.234715	0.798094	0.889891	5.973048	6.846628	-9.112622	15.812371	0.275978	29.024317	-10.350044	0.000000	8.577968	-5.103160	15.446515	17.011930	0.296914	37.875248	-7.198958	0.000000	-0.295051	1.249177	-0.237073	-0.547938	1.661405	-0.251890	-0.484739	3.037248	-0.251890	-0.337213	3.037248	-0.207439	-0.273984	2.547321	-0.192622	-0.168592	1.934975	-0.177805	-2.107517	14.130936	-1.318531	0.000000	0.000000	13.224646	-7.207594	13.836576	4.563515	-16.417116	128.601307	3.969269	2.211587	4.153002	-8.867118	10.122695	-6.484278	86.409632	14.080757	49.341106	-5.958188	-1.925611
